<svg id="_0" data-name="0" xmlns="http://www.w3.org/2000/svg" viewBox="0 0 272.15 418.69"><title>0</title><path id="_0-2" data-name="0" d="M250,64c27.45,35.09,76,103.69,108.64,186.94,12.72,32.39,15.78,66.12,8.85,97.56-4.27,19.37-11.39,36.06-21.15,49.59-12.08,16.76-28.73,29.37-49.49,37.47a129,129,0,0,1-93.7,0c-20.76-8.1-37.41-20.71-49.49-37.47-9.76-13.53-16.88-30.22-21.15-49.59-6.93-31.44-3.87-65.17,8.85-97.57C174,167.67,222.54,99.08,250,64m0-23.33a1.06,1.06,0,0,0-.82.39C226.75,68.24,166.05,147,127.4,245.43,114.21,279,110,316.25,117.86,351.71c8.11,36.74,28.29,77.68,79.83,97.81a144.1,144.1,0,0,0,104.62,0c51.54-20.13,71.72-61.07,79.83-97.81,7.82-35.46,3.65-72.69-9.54-106.28C334,147,273.25,68.24,250.82,41a1.06,1.06,0,0,0-.82-.39Z" transform="translate(-113.93 -40.65)"/></svg>