<svg id="Capa_1" data-name="Capa 1" xmlns="http://www.w3.org/2000/svg" xmlns:xlink="http://www.w3.org/1999/xlink" viewBox="0 0 272.15 418.69"><defs><style>.cls-1{fill:url(#Degradado_sin_nombre_50);}</style><linearGradient id="Degradado_sin_nombre_50" x1="87.38" y1="80.33" x2="367.53" y2="449.15" gradientUnits="userSpaceOnUse"><stop offset="0" stop-color="#a7f235"/><stop offset="0.14" stop-color="#98ed56"/><stop offset="0.44" stop-color="#79e299"/><stop offset="0.7" stop-color="#63dbc9"/><stop offset="0.89" stop-color="#55d6e7"/><stop offset="1" stop-color="#50d4f2"/></linearGradient></defs><title>100</title><g id="_100" data-name="100"><path class="cls-1" d="M372.6,245.43C334,147,273.25,68.24,250.82,41a1.06,1.06,0,0,0-1.64,0C226.75,68.24,166.05,147,127.4,245.43,114.21,279,110,316.25,117.86,351.71c8.11,36.74,28.29,77.68,79.83,97.81a144.17,144.17,0,0,0,104.62,0c51.54-20.13,71.72-61.07,79.83-97.81C390,316.25,385.79,279,372.6,245.43Z" transform="translate(-113.93 -40.65)"/></g><path id="_0" data-name="0" d="M250,64c27.45,35.09,76,103.69,108.64,186.94,12.72,32.39,15.78,66.12,8.85,97.56-4.27,19.37-11.39,36.06-21.15,49.59-12.08,16.76-28.73,29.37-49.49,37.47a129,129,0,0,1-93.7,0c-20.76-8.1-37.41-20.71-49.49-37.47-9.76-13.53-16.88-30.22-21.15-49.59-6.93-31.44-3.87-65.17,8.85-97.57C174,167.67,222.54,99.08,250,64m0-23.33a1.06,1.06,0,0,0-.82.39C226.75,68.24,166.05,147,127.4,245.43,114.21,279,110,316.25,117.86,351.71c8.11,36.74,28.29,77.68,79.83,97.81a144.1,144.1,0,0,0,104.62,0c51.54-20.13,71.72-61.07,79.83-97.81,7.82-35.46,3.65-72.69-9.54-106.28C334,147,273.25,68.24,250.82,41a1.06,1.06,0,0,0-.82-.39Z" transform="translate(-113.93 -40.65)"/></svg>