<svg id="Capa_1" data-name="Capa 1" xmlns="http://www.w3.org/2000/svg" xmlns:xlink="http://www.w3.org/1999/xlink" viewBox="0 0 272.15 418.69"><defs><style>.cls-1{fill:url(#Degradado_sin_nombre_50);}</style><linearGradient id="Degradado_sin_nombre_50" x1="159.72" y1="199.28" x2="349.48" y2="449.1" gradientUnits="userSpaceOnUse"><stop offset="0" stop-color="#a7f235"/><stop offset="0.14" stop-color="#98ed56"/><stop offset="0.44" stop-color="#79e299"/><stop offset="0.7" stop-color="#63dbc9"/><stop offset="0.89" stop-color="#55d6e7"/><stop offset="1" stop-color="#50d4f2"/></linearGradient></defs><title>50</title><g id="_50" data-name="50"><path class="cls-1" d="M213.72,254.16c-30-5-54.2,25.4-79.2,35.4-6.18,3.09-12.26.18-18.74-.3a175.38,175.38,0,0,0,2.08,62.45c8.11,36.74,28.29,77.68,79.83,97.81a144.17,144.17,0,0,0,104.62,0c51.54-20.13,71.72-61.07,79.83-97.81,7.44-33.74,4-69.09-7.69-101.37-31.13,2.26-50.39,27.1-66.23,36.82C275.88,307,250.72,260.16,213.72,254.16Z" transform="translate(-113.93 -40.65)"/></g><path id="_0" data-name="0" d="M250,64c27.45,35.09,76,103.69,108.64,186.94,12.72,32.39,15.78,66.12,8.85,97.56-4.27,19.37-11.39,36.06-21.15,49.59-12.08,16.76-28.73,29.37-49.49,37.47a129,129,0,0,1-93.7,0c-20.76-8.1-37.41-20.71-49.49-37.47-9.76-13.53-16.88-30.22-21.15-49.59-6.93-31.44-3.87-65.17,8.85-97.57C174,167.67,222.54,99.08,250,64m0-23.33a1.06,1.06,0,0,0-.82.39C226.75,68.24,166.05,147,127.4,245.43,114.21,279,110,316.25,117.86,351.71c8.11,36.74,28.29,77.68,79.83,97.81a144.1,144.1,0,0,0,104.62,0c51.54-20.13,71.72-61.07,79.83-97.81,7.82-35.46,3.65-72.69-9.54-106.28C334,147,273.25,68.24,250.82,41a1.06,1.06,0,0,0-.82-.39Z" transform="translate(-113.93 -40.65)"/></svg>